HIERARCHY
ROOT Hips
{
  OFFSET 155.048 98.1286 3.93448
  CHANNELS 6 Xposition Yposition Zposition Zrotation Xrotation Yrotation
  JOINT RightUpLeg
  {
    OFFSET -8.9458 -8.66707 0.101652
    CHANNELS 3 Zrotation Xrotation Yrotation
    JOINT RightLeg
    {
      OFFSET 0 -44.4227 1.3727
      CHANNELS 3 Zrotation Xrotation Yrotation
      JOINT RightFoot
      {
        OFFSET 0.253549 -42.0924 -1.46059
        CHANNELS 3 Zrotation Xrotation Yrotation
        JOINT RightToes
        {
          OFFSET 0.04 -4.41509 8.4991
          CHANNELS 3 Zrotation Xrotation Yrotation
          End Site
          {
            OFFSET -0.08 -0.137448 9.77979
          }
        }
      }
    }
  }
  JOINT Spine
  {
    OFFSET 0 11.8905 0
    CHANNELS 3 Zrotation Xrotation Yrotation
    JOINT Spine1
    {
      OFFSET 0 25.6574 0.127663
      CHANNELS 3 Zrotation Xrotation Yrotation
      JOINT Head
      {
        OFFSET 0 8.73416 0.011341
        CHANNELS 3 Zrotation Xrotation Yrotation
        End Site
        {
          OFFSET -0.29 12.7742 2.51395
        }
      }
      JOINT LeftShoulder1
      {
        OFFSET 8.99 -0.362252 -0.22
        CHANNELS 3 Zrotation Xrotation Yrotation
        JOINT LeftArm
        {
          OFFSET 10.2827 -0.00337999 0.322123
          CHANNELS 3 Zrotation Xrotation Yrotation
          JOINT LeftForeArm
          {
            OFFSET 26.2597 0.099144 -1.42434
            CHANNELS 3 Zrotation Xrotation Yrotation
            JOINT LeftHand
            {
              OFFSET 22.0902 0.085362 1.02216
              CHANNELS 3 Zrotation Xrotation Yrotation
              End Site
              {
                OFFSET 13.419 -0.6 1.50291
              }
            }
          }
        }
      }
      JOINT RightShoulder
      {
        OFFSET -8.99 -0.362252 -0.22
        CHANNELS 3 Zrotation Xrotation Yrotation
        JOINT RightArm
        {
          OFFSET -10.2827 -0.00338 0.322123
          CHANNELS 3 Zrotation Xrotation Yrotation
          JOINT RightForeArm
          {
            OFFSET -26.364 0.099144 -1.42434
            CHANNELS 3 Zrotation Xrotation Yrotation
            JOINT RightHand
            {
              OFFSET -22.0324 0.085362 1.02216
              CHANNELS 3 Zrotation Xrotation Yrotation
              End Site
              {
                OFFSET -13.3284 -0.6 1.50291
              }
            }
          }
        }
      }
    }
  }
  JOINT LeftUpLeg
  {
    OFFSET 8.9458 -8.66707 0.101652
    CHANNELS 3 Zrotation Xrotation Yrotation
    JOINT LeftLeg
    {
      OFFSET 0 -44.4227 1.3727
      CHANNELS 3 Zrotation Xrotation Yrotation
      JOINT LeftFoot
      {
        OFFSET -0.253549 -42.0924 -1.46059
        CHANNELS 3 Zrotation Xrotation Yrotation
        JOINT LeftToes
        {
          OFFSET -0.04 -4.41509 8.4991
          CHANNELS 3 Zrotation Xrotation Yrotation
          End Site
          {
            OFFSET 0.08 -0.047448 9.77979
          }
        }
      }
    }
  }
}
MOTION
Frames:	17
Frame Time:	0.0333333
-48.2579 101.408 3.87772 -0.496406 1.07767 -84.9501 -0.289422 -35.3875 9.80885 -0.907894 41.4337 -9.79491 7.81177 -2.1861 -0.513396 0.0462048 0.000530889 0.662642 7.21167 10.2554 -0.923585 -6.99108 7.07799 1.37191 1.50463 -4.78161 -0.0585652 -30.457 6.37444 -13.8382 -42.2234 -9.19213 1.884 -13.7185 4.85782 -29.2707 22.2678 8.85882 -0.131928 42.7889 9.89516 16.0038 27.5698 -38.8263 -16.0281 3.45438 19.1935 23.0033 -5.3591 9.55041 3.50355 -4.81796 -23.0184 -14.8677 0.980586 29.5813 14.9441 -14.1458 -26.5668 -2.29624 -1.34084e-009 8.75212e-006 -1.45762e-008 
-53.0544 97.346 3.69168 -0.735758 0.118704 -85.515 -1.16313 -38.2758 14.4462 -0.755793 39.797 -7.80687 6.43498 -7.69101 -0.162792 0.0462048 0.000530889 0.662642 5.5619 12.205 -0.763463 -6.03583 6.03333 1.41486 1.1036 -6.76511 -0.561202 -31.6782 6.85592 -14.5408 -41.3494 -8.72343 0.453253 -13.5477 4.94663 -29.1559 22.8936 8.76442 -0.453828 43.4477 10.349 16.6173 26.6267 -38.0674 -12.0288 5.02628 16.3488 20.6487 -5.60464 9.57289 2.47056 -6.79235 -26.1522 -15.1907 1.01714 37.6276 15.2578 -10.9106 -22.0161 -1.31075 -1.34084e-009 8.75212e-006 -1.45762e-008 
-57.8442 93.3139 3.17023 -1.269 -1.99539 -85.1269 -3.61895 -40.6005 16.6207 -0.837446 42.6083 -7.65116 7.04605 -11.0497 0.0180268 0.0462048 0.000530889 0.662642 0.631489 14.7037 -0.469455 -2.35333 4.21735 0.5308 0.625924 -9.25994 -0.520719 -33.1171 7.30031 -14.9998 -41.112 -6.11567 -3.07948 -12.61 3.39957 -24.7572 24.3187 8.53783 -1.20748 44.1263 10.8912 17.3752 25.2488 -37.2702 -7.15245 6.52157 15.6123 17.07 -6.195 9.5635 1.7766 -9.49636 -29.1723 -13.1104 1.18663 48.9003 13.5164 -5.82349 -19.9147 -0.514739 -1.34084e-009 8.75212e-006 -1.45762e-008 
-62.6246 90.1623 2.65001 -1.02331 -3.58543 -84.0593 -5.31966 -43.0077 16.6277 -1.05812 49.6393 -9.77007 8.83281 -11.976 0.136251 0.0462048 0.000530889 0.662642 -2.4611 16.277 -0.218779 0.657391 2.72744 -0.352695 0.218818 -12.4637 -0.766144 -33.6328 7.54528 -15.3654 -41.2863 -9.41677 -8.34818 -11.7134 7.62808 -15.2548 24.4774 8.56167 -1.03598 44.4429 11.2264 17.8768 24.7332 -36.6345 -2.27857 7.33796 18.2266 14.181 -6.45206 9.56048 1.50086 -11.5596 -31.1365 -12.2095 1.49937 58.8047 12.4045 -3.80575 -23.4953 -0.422118 -1.34084e-009 8.75212e-006 -1.45762e-008 
-67.7069 88.3563 2.34975 -0.381986 -3.37205 -83.897 -4.3464 -44.5302 16.2402 -1.26956 57.2169 -10.9564 10.7665 -12.7709 0.285743 0.0462048 0.000530889 0.662642 -0.429637 16.108 -0.338935 -0.691509 2.22568 -0.0946099 0.0436928 -15.8031 -1.51715 -33.0481 7.58449 -15.742 -45.182 -29.5103 -13.7531 -16.0027 28.0118 -3.32897 22.8988 8.94512 0.491866 44.3696 11.3203 18.0888 25.2107 -33.5881 1.15848 6.88268 20.6807 14.4794 -5.9034 9.58786 1.64687 -11.4772 -30.6843 -12.1319 1.81728 64.6202 12.9194 -4.81559 -29.9077 -0.814024 -1.34084e-009 8.75212e-006 -1.45762e-008 
-73.4134 88.0409 2.18803 -0.153284 -1.91282 -85.8664 -0.657742 -43.3849 17.3981 -1.4435 61.4442 -9.96472 10.8248 -15.536 0.52903 0.0462048 0.000530889 0.662642 4.51732 14.1941 -0.217321 -5.03604 2.63217 1.37616 0.464939 -17.1077 -1.79272 -32.2896 7.51419 -15.9371 -45.1209 -29.058 -13.6086 -16.3423 26.9555 -2.40841 21.5963 9.22837 1.73359 44.2819 11.3738 18.2312 25.4832 -27.7889 2.48197 5.3163 20.841 17.4752 -5.38968 9.58371 2.55899 -8.66417 -26.965 -10.3177 1.94684 65.3564 14.0901 -6.358 -35.1718 -1.41976 -1.34084e-009 8.75212e-006 -1.45762e-008 
-79.7975 89.3546 1.95183 -0.0090591 -0.694374 -88.7402 2.587 -39.0106 18.7398 -1.35026 60.7987 -9.24771 8.67605 -18.8957 0.62525 0.0462048 0.000530889 0.662642 7.99133 10.2975 0.566578 -7.83867 3.82287 2.84022 1.07765 -14.7737 -1.22011 -32.0672 7.37646 -15.6964 -42.4451 -16.0495 -8.80296 -14.7604 14.5123 -9.2847 22.0098 9.07524 0.98992 44.2166 11.3928 18.2979 25.5445 -22.1315 2.2516 3.78075 20.1024 20.6911 -6.00662 9.47787 3.99395 -5.27494 -21.0028 -6.91346 1.79309 62.1546 14.6222 -8.44522 -36.0439 -2.01329 -1.34084e-009 8.75212e-006 -1.45762e-008 
-86.4331 92.2857 1.47367 0.390979 -0.356795 -89.651 2.21538 -32.3769 17.195 -1.18982 55.9742 -9.61887 6.65607 -20.0998 0.495572 0.0462048 0.000530889 0.662642 7.69331 4.46155 1.31795 -7.00484 5.79086 3.0591 0.8898 -10.0015 -0.97336 -31.9486 7.10996 -15.0688 -42.6254 -3.06752 -4.17004 -13.4124 4.45576 -15.8393 23.0052 8.67294 -0.90879 43.6714 11.1255 18.0307 26.348 -19.9589 0.913663 2.74749 20.5279 23.291 -7.41337 9.30313 5.11408 -3.59785 -15.4047 -4.07079 1.5537 57.9121 14.8103 -11.3807 -28.9679 -2.02272 -1.34084e-009 8.75212e-006 -1.45762e-008 
-92.6691 96.5649 0.832365 0.608377 -1.18011 -87.6645 -0.859305 -24.6694 12.4216 -1.02172 48.6784 -9.21842 6.88323 -16.8 0.323267 0.0462048 0.000530889 0.662642 4.32354 -1.33612 1.18097 -3.93176 7.89611 1.93713 0.395612 -5.33664 -1.69699 -31.4013 6.7319 -14.3473 -44.579 3.40632 -0.928831 -12.2075 1.52803 -19.6694 23.1301 8.5289 -1.61069 42.6235 10.5572 17.391 27.7678 -22.3255 -1.53701 2.14694 21.8538 25.973 -8.36192 9.20598 5.28229 -3.34263 -12.3663 -2.83215 1.51246 55.2494 15.8746 -12.5694 -13.4728 -0.618568 -1.34084e-009 8.75212e-006 -1.45762e-008 
-98.2044 101.388 0.32259 0.230955 -1.75102 -84.3074 -3.32003 -17.6847 6.97061 -0.793003 41.8788 -7.65864 9.32773 -7.37837 -0.220134 0.0462048 0.000530889 0.662642 1.43633 -4.60211 0.437999 -1.56491 9.22202 0.704585 1.07207 -2.10844 -2.87517 -30.8058 6.4407 -13.8569 -45.6424 4.71923 1.2428 -11.8519 2.22995 -22.7607 22.0857 8.74316 -0.799754 41.9201 10.0469 16.6838 28.4902 -26.6287 -4.82816 2.57074 21.3815 28.8044 -8.48452 9.23982 4.57935 -3.01441 -11.7025 -2.4083 1.55687 53.9929 17.6271 -11.1766 1.73921 0.879645 -1.34084e-009 8.75212e-006 -1.45762e-008 
-103.18 105.809 0.0573829 -0.510639 -1.56884 -81.9415 -3.98949 -13.9044 3.14249 -0.713477 38.7969 -6.73665 12.6673 7.49055 -1.75424 0.0462048 0.000530889 0.662642 1.81407 -5.39226 0.168194 -2.32439 9.9391 0.681697 2.16521 -1.20936 -4.4827 -30.8081 6.42592 -13.815 -44.6592 2.83049 2.68013 -12.6766 3.77052 -25.7947 20.773 8.92862 -0.155395 42.1413 9.85837 16.2063 28.01 -30.7998 -7.85718 4.28677 19.1658 30.9114 -8.49748 9.28957 3.8004 -2.33037 -11.9526 -1.53477 1.58342 52.6599 19.0459 -8.85077 6.26864 1.04123 -1.34084e-009 8.75212e-006 -1.45762e-008 
-107.795 109.167 -0.163181 -0.942409 -1.2936 -81.3764 -4.13571 -13.8085 1.03541 -0.750586 39.6827 -7.07638 15.4645 20.8801 -3.81851 0.0462048 0.000530889 0.662642 3.84973 -5.33461 0.678407 -5.7242 10.8893 1.81521 1.33205 -3.23993 -6.87473 -31.244 6.60964 -14.1005 -42.7645 1.15799 3.05372 -13.8974 3.6654 -28.131 20.2922 8.88982 -0.51897 42.8239 9.89773 15.9943 27.2158 -33.7168 -9.44213 5.926 17.203 32.1197 -8.78918 9.27735 3.63436 -1.91267 -12.8827 -0.226617 1.49416 50.4362 18.3956 -8.11346 1.63603 0.620849 -1.34084e-009 8.75212e-006 -1.45762e-008 
-112.111 111.385 -0.455379 -0.997657 -1.1092 -81.5166 -4.28895 -15.3286 -0.672958 -0.78666 42.0342 -7.41344 15.7297 23.6592 -4.27946 0.0462048 0.000530889 0.662642 5.12167 -4.71819 1.27912 -8.32188 11.8225 2.93766 0.476661 -5.36268 -8.15524 -31.3323 6.68102 -14.247 -41.9111 -0.810604 2.40919 -14.317 3.86898 -29.1883 21.0928 8.74119 -1.12665 43.0491 9.91234 15.9289 26.9146 -34.8734 -9.66283 6.24001 17.0074 33.0121 -9.08752 9.23105 3.96314 -1.832 -14.1785 0.268016 1.28644 46.2118 16.9753 -9.94482 -4.33835 0.299947 -1.34084e-009 8.75212e-006 -1.45762e-008 
-116.293 112.979 -0.795375 -1.03096 -0.932739 -81.1345 -4.39408 -16.2345 -2.47265 -0.79702 41.9343 -7.50833 13.6835 16.5016 -2.90471 0.0462048 0.000530889 0.662642 4.87208 -3.00628 1.36195 -8.14606 11.4226 3.08636 0.741068 -5.69572 -7.70709 -30.7219 6.46367 -13.9541 -42.9206 -3.0377 1.78749 -13.715 5.17387 -29.6767 22.7073 8.63052 -1.21956 42.5078 9.79269 15.9181 27.0348 -34.1981 -9.56038 5.38781 18.2612 33.9364 -9.13412 9.20396 4.29396 -2.15739 -14.7646 -0.899 1.13663 39.0879 17.2362 -11.372 -8.44987 -0.039024 -1.34084e-009 8.75212e-006 -1.45762e-008 
-120.434 113.712 -1.14827 -0.909589 -0.653363 -80.1887 -4.33865 -16.3519 -3.46426 -0.78233 37.5051 -9.4278 12.1576 6.91692 -1.6151 0.0462048 0.000530889 0.662642 4.09682 -0.395372 1.03675 -6.7956 9.42633 2.53627 1.1565 -4.69464 -7.07426 -29.9314 6.16193 -13.5078 -44.4908 -4.81274 1.78376 -12.9864 6.50116 -30.0104 23.9207 8.58764 -1.07163 41.7719 9.63373 15.9092 27.0643 -32.6208 -9.59588 4.24035 19.7609 34.671 -8.71219 9.23255 4.39471 -2.57543 -15.0732 -3.43062 1.08453 30.8051 17.6034 -11.3095 -12.6071 -0.434849 -1.34084e-009 8.75212e-006 -1.45762e-008 
-124.439 113.31 -1.46383 -0.384293 -0.101606 -79.3787 -3.96751 -17.0477 -2.90116 -0.898652 30.9478 -13.7273 11.0871 0.51226 -0.91339 0.0462048 0.000530889 0.662642 4.28559 2.2793 0.732725 -6.41006 7.16212 2.19486 1.81184 -3.52602 -6.71132 -29.6794 6.09166 -13.431 -44.8889 -5.52526 1.75988 -12.9133 6.4823 -29.8239 23.9883 8.54784 -1.25224 41.5811 9.57901 15.8789 26.5659 -31.5886 -9.36381 3.48195 20.6891 34.92 -7.86429 9.30608 4.36869 -2.66556 -16.4979 -5.37854 1.39535 24.1584 15.5813 -11.2176 -16.6932 -0.820657 -1.34084e-009 8.75212e-006 -1.45762e-008 
-128.262 111.862 -1.72237 0.230504 0.736546 -79.3206 -3.14458 -18.8157 -1.24765 -1.11358 25.3409 -17.5064 8.48331 -5.26628 -0.350968 0.0462048 0.000530889 0.662642 5.81278 4.78627 0.723831 -7.17734 5.71327 2.46898 2.45442 -3.54206 -6.79012 -29.8749 6.26298 -13.8072 -43.991 -5.37037 1.32871 -13.3851 5.45459 -29.3796 23.474 8.48702 -1.71387 42.019 9.68437 15.9068 25.6087 -31.7572 -8.68569 3.35693 20.8248 34.7835 -7.28322 9.35593 4.35548 -2.33517 -18.6527 -4.57037 2.38196 19.7996 11.2559 -11.4885 -20.2775 -1.19626 -1.34084e-009 8.75212e-006 -1.45762e-008 
